# WaveFront *.obj file (generated by CINEMA 4D)

mtllib ./CUORE.mtl

v -28.3375301361084 41.27085113525391 6.81432247161865
v 0.04768537729979 35.50029373168945 22.8618221282959
v -0.70246660709381 13.20832824707031 33.48102569580078
v -43.5032958984375 -21.02569580078125 14.32814407348633
v 20.18016242980957 -42.10770797729492 3.89344096183777
v -46.42314910888672 -15.69757461547852 3.85324311256409
v -15.81495380401611 -16.06453323364258 28.90524673461914
v 5.47129440307617 -51.54359436035156 15.10288143157959
v 60.62268829345703 13.72370910644531 16.984619140625
v 39.90681457519531 -23.52516555786133 16.36764907836914
v -2.09903621673584 -59.04655456542969 2.57493233680725
v 44.3873291015625 -20.62712860107422 6.2481803894043
v -23.49541091918945 46.78540420532227 17.42037963867188
v -27.44961738586426 -32.05868911743164 -2.47709274291992
v 2.32713961601257 -47.90567398071289 -1.61233067512512
v -45.64620590209961 30.68503761291504 3.3918924331665
v 57.97827911376953 24.44174194335938 7.97846984863281
v 31.41729736328125 35.11033630371094 2.65446352958679
v 33.91625595092773 18.8901481628418 -3.5841588973999
v -49.09077072143555 0.04627923667431 25.55956077575684
v 51.80231094360352 30.32880783081055 25.91177558898926
v 54.97896575927734 3.11138987541199 21.4889965057373
v 28.36942481994629 -24.11881828308105 -4.38309812545776
v -46.7549934387207 41.05076217651367 15.95549583435059
v -58.7177734375 26.98181343078613 16.2916088104248
v -37.4446907043457 42.64284133911133 28.36215782165527
v 19.24978065490723 -21.55262184143066 26.60671234130859
v 21.33979415893555 44.85791015625 11.77561855316162
v -41.77344131469727 25.25885963439941 31.32850074768066
v -5.5274600982666 -26.83538055419922 -8.32058715820312
v -59.26059722900391 14.16941165924072 21.79592323303223
v 36.43492889404297 42.38872909545898 26.82870101928711
v -15.91104507446289 11.37532138824463 -5.5893931388855
v 55.64311218261719 0.25112611055374 3.59650540351868
v 42.15118408203125 7.67190170288086 30.71644973754883
v -18.91267967224121 44.56956481933594 26.60712432861328
v 0.00673755025491 33.80498123168945 9.48765659332275
v 30.43980026245117 27.820068359375 33.36618804931641
v 46.3587646484375 2.81849241256714 -2.53893733024597
v -58.16231155395508 1.36603200435638 12.70283794403076
v 20.85770606994629 44.35653305053711 26.8890323638916
v 42.13276290893555 45.07402420043945 15.01792621612549
v -42.96047210693359 -1.12439024448395 -4.68405103683472
# 43 vertices

vn -0.20651057362556 0.53347367048264 0.82021898031235
vn -0.20653316378593 0.53345793485641 0.82022356987
vn -0.78759890794754 0.2994692325592 0.53852218389511
vn 0.41187071800232 -0.59120088815689 -0.69342917203903
vn -0.52737587690353 0.76913386583328 -0.3609816133976
vn -0.15804228186607 -0.29591336846352 0.94204986095428
vn 0.71110606193542 -0.70237672328949 -0.03154518827796
vn 0.71112096309662 -0.70236027240753 -0.03157596290112
vn -0.44880163669586 -0.74611103534698 -0.49182865023613
vn -0.44878554344177 -0.7461131811142 -0.49184003472328
vn -0.05927320569754 0.1231729388237 -0.99061352014542
vn -0.0592709928751 0.12320186197758 -0.99061006307602
vn 0.27808383107185 0.32958209514618 -0.9022444486618
vn 0.25686064362526 -0.04938146471977 -0.96518605947494
vn 0.75145810842514 0.10380361974239 0.6515639424324
vn 0.75146931409836 0.1038321107626 0.65154647827148
vn -0.53892976045609 0.72172963619232 0.43435126543045
vn -0.53894370794296 0.72170901298523 0.43436819314957
vn -0.13687053322792 0.15213060379028 0.97883743047714
vn -0.31031894683838 -0.49818849563599 -0.8096359372139
vn -0.31033337116241 -0.49819415807724 -0.80962693691254
vn -0.83300846815109 -0.54853689670563 -0.07213977724314
vn 0.04071977734566 0.0100248362869 -0.99912029504776
vn -0.9966601729393 -0.04486331343651 0.06823353469372
vn 0.13724173605442 -0.15221925079823 -0.97877168655396
vn -0.03632211685181 -0.20596957206726 -0.97788405418396
vn -0.03635298460722 -0.20596933364868 -0.97788298130035
vn -0.30060738325119 0.37635320425034 -0.87635236978531
vn -0.09061644226313 -0.13029855489731 -0.98732513189316
vn -0.22732238471508 0.54222637414932 0.80889749526978
vn -0.85046309232712 0.52601093053818 0.00500513100997
vn 0.51745867729187 0.06315968185663 -0.8533741235733
vn 0.51748150587082 0.06319113820791 -0.85335791110992
vn -0.4774928689003 0.86232870817184 0.16849252581596
vn -0.47751662135124 0.86231607198715 0.16849005222321
vn 0.65616768598557 -0.74476164579391 0.12154864519835
vn 0.00778669118881 -0.04990561306477 -0.99872356653214
vn -0.78958141803741 -0.45137414336205 0.4157193005085
vn -0.04931432753801 0.07534778118134 -0.99593716859818
vn 0.17082434892654 -0.86389136314392 -0.47382569313049
vn 0.17081777751446 -0.86388689279556 -0.47383618354797
vn -0.58653837442398 -0.39535176753998 0.7068732380867
vn 0.56056010723114 -0.81914699077606 0.12153419107199
vn -0.01217542309314 0.21712324023247 0.97606825828552
vn 0.68306094408035 -0.69819056987762 -0.21437735855579
vn 0.92511349916458 -0.15537345409393 -0.34644496440887
vn 0.92509907484055 -0.15540201961994 -0.34647059440613
vn -0.60246956348419 -0.74174910783768 0.29468402266502
vn -0.60247004032135 -0.74174183607101 0.29470139741898
vn 0.17739988863468 -0.98270291090012 -0.05314391106367
vn 0.17743028700352 -0.9826956987381 -0.05317521467805
vn 0.04839881137013 -0.34337610006332 0.93795013427734
vn 0.09012484550476 -0.64477622509003 -0.75903964042664
vn 0.56362646818161 -0.22107142210007 0.79589736461639
vn -0.14425130188465 -0.40000435709953 -0.90509009361267
vn 0.43312981724739 0.81087094545364 -0.39355662465096
vn 0.75647497177124 -0.53381109237671 -0.37787741422653
vn -0.68527841567993 0.03310124948621 0.72752857208252
vn 0.39966461062431 -0.45464664697647 -0.79596775770187
vn 0.06629549711943 0.60441893339157 0.79390341043472
vn -0.05651741847396 -0.58960264921188 -0.80571365356445
vn -0.27494287490845 -0.62014925479889 -0.73472535610199
vn 0.16009832918644 0.92575132846832 -0.34256818890572
vn 0.29161736369133 -0.32416594028473 -0.89993095397949
vn 0.60135138034821 0.10267204791307 0.79236036539078
vn -0.00846623070538 -0.48462671041489 -0.87468010187149
vn 0.87540847063065 -0.44833111763 -0.18071855604649
vn 0.59081387519836 -0.70635002851486 -0.38988274335861
vn 0.84196585416794 -0.51379370689392 0.16464979946613
vn 0.50895911455154 -0.86011832952499 0.03401634469628
vn 0.60713785886765 -0.45187777280807 -0.65359783172607
vn 0.60712611675262 -0.45186904072762 -0.65361475944519
vn 0.7270348072052 -0.20827750861645 -0.65424835681915
vn 0.72703468799591 -0.20826867222786 -0.65425127744675
vn 0.14500312507153 -0.39794093370438 -0.90587919950485
vn 0.1449975669384 -0.39795511960983 -0.90587383508682
vn 0.53759801387787 0.31955054402351 -0.78030496835709
vn 0.00204844749533 -0.19056770205498 -0.98167192935944
vn 0.34725776314735 0.46338921785355 0.81528061628342
vn 0.63059902191162 -0.31051698327065 -0.71128338575363
vn 0.09498467296362 0.98268097639084 0.15911012887955
vn 0.39647966623306 -0.05239058658481 -0.91654735803604
vn 0.54169678688049 -0.62780719995499 -0.55894792079926
vn 0.66689920425415 -0.52627867460251 -0.52751892805099
vn 0.66690522432327 -0.52628964185715 -0.52750033140182
vn 0.10584235936403 -0.45391768217087 -0.88473504781723
vn 0.10583823919296 -0.45392909646034 -0.8847296833992
vn -0.77765417098999 -0.37196215987206 -0.50685119628906
vn 0.24690406024456 -0.60840660333633 -0.75424116849899
vn -0.58379310369492 -0.71612626314163 -0.38255554437637
vn 0.50005882978439 -0.76204746961594 -0.41136944293976
vn 0.00258525949903 0.9648728966713 0.26270443201065
vn 0.19154231250286 -0.84176224470139 -0.50472557544708
vn -0.53535896539688 0.55547672510147 0.63626754283905
vn 0.42042323946953 -0.21205911040306 -0.88219910860062
vn -0.03154650703073 0.86051225662231 0.50845205783844
vn 0.28631615638733 -0.29242214560509 -0.91242116689682
vn 0.09259435534477 0.43113243579864 0.89752501249313
vn -0.18478848040104 -0.16919451951981 -0.96810454130173
vn -0.08018469810486 0.56454014778137 0.82150155305862
vn -0.37964603304863 -0.47789606451988 -0.79213905334473
vn 0.89205247163773 -0.44769588112831 -0.06173178553581
vn -0.13510257005692 -0.34515604376793 -0.92877048254013
vn -0.42359748482704 -0.03726682811975 -0.90508359670639
vn -0.217100918293 -0.29124182462692 -0.93168956041336
vn 0.34802621603012 -0.6259109377861 -0.69793504476547
vn 0.348019272089 -0.6258984208107 -0.69794964790344
vn -0.40211454033852 -0.5440394282341 0.73642718791962
vn 0.4334565103054 -0.75371927022934 -0.49398657679558
vn 0.1128306761384 -0.14638170599937 -0.98277240991592
vn 0.11285817623138 -0.14637666940689 -0.98277002573013
vn 0.05187555775046 -0.22175647318363 -0.9737212061882
vn 0.05190470814705 -0.22174948453903 -0.97372126579285
vn 0.48016089200974 -0.2090627104044 0.85190272331238
vn 0.37384760379791 -0.49079105257988 -0.78699564933777
vn -0.81756937503815 0.12261928617954 -0.56262320280075
vn 0.20318111777306 -0.40353617072105 -0.89211881160736
vn -0.51635241508484 0.85073095560074 0.09816846251488
vn -0.51635080575943 0.85072833299637 0.09819938987494
vn 0.53541123867035 0.83926296234131 0.09472323954105
vn 0.53541791439056 0.83925569057465 0.09475013613701
vn -0.73125141859055 -0.67811036109924 -0.0737409517169
vn -0.73126423358917 -0.67809331417084 -0.07377035170794
vn -0.52873623371124 -0.50310373306274 -0.6836114525795
vn -0.84438717365265 -0.51386874914169 -0.15149016678333
vn 0.7145082950592 0.69192713499069 0.10351224988699
vn 0.8852744102478 0.40442058444023 0.2296372205019
vn 0.88527476787567 0.40440675616264 0.22966006398201
vn -0.20245881378651 0.37308514118195 -0.90543794631958
vn 0.17011594772339 -0.2085973918438 0.96309280395508
vn -0.22491559386253 0.97125506401062 0.07795226573944
vn 0.17868648469448 0.13469921052456 0.97464209794998
vn 0.26609492301941 0.52914249897003 0.80573058128357
vn 0.26611757278442 0.52915918827057 0.80571210384369
vn 0.43534898757935 0.87051600217819 0.22950629889965
vn 0.4353621006012 0.87051182985306 0.22949720919132
vn -0.23683089017868 0.88991355895996 0.38982680439949
vn -0.97118085622787 -0.20456694066525 0.12231155484915
vn 0.13543371856213 -0.08150580525398 0.98742824792862
vn -0.37101832032204 0.21768867969513 0.90274971723557
vn 0.49100637435913 -0.48479864001274 0.7237976193428
vn 0.10848047584295 0.21228301525116 -0.97116833925247
vn -0.8025034070015 0.41800567507744 -0.42574587464333
vn -0.80251514911652 0.41799458861351 -0.42573457956314
vn 0.42339795827866 0.22303177416325 0.8780609369278
vn 0.4234231710434 0.22302888333797 0.878049492836
vn 0.50628727674484 0.7992457151413 0.32385104894638
vn 0.50627028942108 0.79924875497818 0.32387000322342
vn -0.34331357479095 0.55310052633286 -0.75908869504929
vn -0.34329754114151 0.55311024188995 -0.75908881425858
vn 0.66021955013275 0.64978915452957 -0.37667518854141
vn 0.66021114587784 0.64978086948395 -0.3767041862011
vn -0.00949836149812 0.21525506675243 0.97651165723801
vn -0.67990857362747 -0.6872051358223 0.25587776303291
vn -0.85735285282135 -0.24356615543365 0.45345520973206
vn -0.8573614358902 -0.24355937540531 0.45344257354736
vn 0.01686556451023 0.24410685896873 0.9696016907692
vn -0.20294611155987 0.72615200281143 -0.65689885616302
vn -0.9068301320076 -0.08903332054615 -0.41198572516441
vn 0.03023973852396 0.99910932779312 -0.02943032421172
# 160 normals

o Heart
usemtl Mat
f 41//1 2//1 3//1
f 25//3 31//3 29//3
f 24//5 1//5 16//5
f 10//7 5//7 12//7
f 11//9 14//9 15//9
f 19//11 33//11 18//11
f 33//13 1//13 37//13
f 21//15 22//15 9//15
f 24//17 25//17 26//17
f 20//19 7//19 29//19
f 30//20 14//20 43//20
f 6//22 4//22 40//22
f 40//24 31//24 25//24
f 30//26 43//26 33//26
f 33//28 37//28 18//28
f 41//30 3//30 38//30
f 39//32 19//32 17//32
f 41//34 28//34 2//34
f 8//36 5//36 10//36
f 40//38 4//38 20//38
f 15//40 5//40 11//40
f 20//42 4//42 7//42
f 7//44 3//44 29//44
f 34//46 17//46 9//46
f 4//48 11//48 8//48
f 11//50 5//50 8//50
f 7//52 8//52 27//52
f 10//54 22//54 35//54
f 37//56 1//56 13//56
f 29//58 31//58 20//58
f 38//60 32//60 41//60
f 15//62 14//62 30//62
f 42//63 18//63 28//63
f 35//65 22//65 21//65
f 12//67 34//67 9//67
f 12//69 22//69 10//69
f 34//71 23//71 39//71
f 17//73 34//73 39//73
f 23//75 30//75 39//75
f 18//77 17//77 19//77
f 21//79 32//79 38//79
f 28//81 32//81 42//81
f 12//83 5//83 23//83
f 12//84 23//84 34//84
f 30//86 23//86 15//86
f 6//88 40//88 43//88
f 11//90 6//90 14//90
f 28//92 41//92 32//92
f 29//94 26//94 25//94
f 13//96 26//96 36//96
f 29//98 3//98 36//98
f 36//100 26//100 29//100
f 12//102 9//102 22//102
f 33//104 43//104 16//104
f 5//106 15//106 23//106
f 8//108 7//108 4//108
f 39//110 33//110 19//110
f 39//112 30//112 33//112
f 27//114 10//114 35//114
f 25//116 16//116 43//116
f 28//118 37//118 2//118
f 13//120 2//120 37//120
f 4//122 6//122 11//122
f 43//124 14//124 6//124
f 42//126 21//126 17//126
f 17//127 21//127 9//127
f 33//129 16//129 1//129
f 1//131 24//131 13//131
f 2//133 36//133 3//133
f 2//135 13//135 36//135
f 13//137 24//137 26//137
f 7//139 27//139 35//139
f 27//141 8//141 10//141
f 24//143 16//143 25//143
f 38//145 35//145 21//145
f 32//147 21//147 42//147
f 28//149 18//149 37//149
f 18//151 42//151 17//151
f 7//153 35//153 3//153
f 40//155 20//155 31//155
f 3//157 35//157 38//157
f 25//159 43//159 40//159

